<?xml version="1.0" encoding="utf-8"?>
<!-- Generator: Adobe Illustrator 28.3.0, SVG Export Plug-In . SVG Version: 6.00 Build 0)  -->
<svg version="1.1"
	 id="svg3025" xmlns:svg="http://www.w3.org/2000/svg" xmlns:sodipodi="http://sodipodi.sourceforge.net/DTD/sodipodi-0.dtd" xmlns:inkscape="http://www.inkscape.org/namespaces/inkscape" xmlns:rdf="http://www.w3.org/1999/02/22-rdf-syntax-ns#" xmlns:cc="http://creativecommons.org/ns#" xmlns:dc="http://purl.org/dc/elements/1.1/"
	 xmlns="http://www.w3.org/2000/svg" xmlns:xlink="http://www.w3.org/1999/xlink" x="0px" y="0px" viewBox="0 0 128 128"
	 style="enable-background:new 0 0 128 128;" xml:space="preserve">
<style type="text/css">
	.st0{fill:#C9CDFB;}
</style>
<sodipodi:namedview  bordercolor="#666666" borderopacity="1" gridtolerance="10" guidetolerance="10" id="namedview3031" inkscape:current-layer="svg3025" inkscape:cx="896" inkscape:cy="896" inkscape:pageopacity="0" inkscape:pageshadow="2" inkscape:window-height="480" inkscape:window-maximized="0" inkscape:window-width="640" inkscape:window-x="0" inkscape:window-y="25" inkscape:zoom="0.13169643" objecttolerance="10" pagecolor="#ffffff" showgrid="false">
	</sodipodi:namedview>
<g id="g3027" transform="matrix(1,0,0,-1,30.372881,1426.9492)">
	<path id="path3029" inkscape:connector-curvature="0" class="st0" d="M69.1,1352.6v-22.1c0-5.5-1.9-10.2-5.8-14.1
		c-3.9-3.9-8.6-5.8-14.1-5.8H-8.3c-5.5,0-10.2,1.9-14.1,5.8c-3.9,3.9-5.8,8.6-5.8,14.1v57.6c0,5.5,1.9,10.2,5.8,14.1
		s8.6,5.8,14.1,5.8h48.7c0.6,0,1.2-0.2,1.6-0.6s0.6-0.9,0.6-1.6v-4.4c0-0.6-0.2-1.2-0.6-1.6c-0.4-0.4-0.9-0.6-1.6-0.6H-8.3
		c-3,0-5.7-1.1-7.8-3.3c-2.2-2.2-3.3-4.8-3.3-7.8v-57.6c0-3,1.1-5.7,3.3-7.8c2.2-2.2,4.8-3.3,7.8-3.3h57.6c3,0,5.7,1.1,7.8,3.3
		c2.2,2.2,3.3,4.8,3.3,7.8v22.1c0,0.6,0.2,1.2,0.6,1.6c0.4,0.4,0.9,0.6,1.6,0.6h4.4c0.6,0,1.2-0.2,1.6-0.6
		C68.9,1353.8,69.1,1353.2,69.1,1352.6z M95.7,1412.4v-35.4c0-1.2-0.4-2.2-1.3-3.1c-0.9-0.9-1.9-1.3-3.1-1.3c-1.2,0-2.2,0.4-3.1,1.3
		l-9.3,9.3c-1.6,1.6-4.1,1.6-5.7,0l-42.3-42.3c-0.5-0.5-1-0.7-1.6-0.7c-0.6,0-1.1,0.2-1.6,0.7l-7.9,7.9c-0.5,0.5-0.7,1-0.7,1.6
		c0,0.6,0.2,1.1,0.7,1.6l42.3,42.3c1.6,1.6,1.6,4.1,0,5.7l-9.3,9.3c-0.9,0.9-1.3,1.9-1.3,3.1c0,1.2,0.4,2.2,1.3,3.1
		c0.9,0.9,1.9,1.3,3.1,1.3h35.4c1.2,0,2.2-0.4,3.1-1.3C95.3,1414.6,95.7,1413.6,95.7,1412.4z"/>
</g>
</svg>
